<svg xmlns="http://www.w3.org/2000/svg" viewBox="0 0 1080 1080"><path fill="#FFBE55" d="M138.95 731.168c0-209.822 170.094-379.916 379.916-379.916s379.916 170.094 379.916 379.916" opacity=".07"/><g fill="#FFBE55"><path d="M671.504 607.021h-21.221a.679.679 0 0 0-.679.679v16.102a8.483 8.483 0 0 0 8.483 8.483h5.614a8.483 8.483 0 0 0 8.483-8.483V607.7a.68.68 0 0 0-.68-.679z"/><path d="M668.96 629.509c4.789-2.704 13.004-10.684 11.636-16.299-.366-1.501-1.283-2.631-2.654-3.267-3.173-1.475-7.716.306-8.223.514l1.512 3.153c1.096-.446 3.775-1.175 5.036-.586.255.119.536.324.686.943.798 3.272-5.631 10.167-9.939 12.6l1.946 2.942z"/></g><path fill="#FAFAFA" d="M515.851 620.209H406.1a3.347 3.347 0 0 1-3.347-3.347V553.92a3.346 3.346 0 0 1 3.346-3.346H515.85a3.346 3.346 0 0 1 3.346 3.346v62.942a3.345 3.345 0 0 1-3.345 3.347z"/><path fill="#FAFAFA" d="M474.144 629.284c-.417-1.113-.594-2.321-.594-3.528v-5.548h-24.293v5.548c0 1.207-.177 2.415-.594 3.528-.58 1.548-1.691 3.267-3.764 3.267H477.907c-2.072 0-3.183-1.719-3.763-3.267z"/><path fill="#D3D3D3" d="M698.362 640.01H349.647a2.118 2.118 0 0 1-2.118-2.118v-3.258c0-1.17.948-2.118 2.118-2.118h348.715c1.17 0 2.118.948 2.118 2.118v3.258a2.117 2.117 0 0 1-2.118 2.118z"/><path fill="#D3D3D3" d="M407.903 640.01h8.01v90.034h-8.01zM627.037 640.01h8.01v90.034h-8.01z"/><path fill="#2A94F4" d="M515.851 609.133H406.1a3.347 3.347 0 0 1-3.347-3.347v-62.942a3.347 3.347 0 0 1 3.347-3.347h109.751a3.346 3.346 0 0 1 3.346 3.346v62.942a3.346 3.346 0 0 1-3.346 3.348z"/><path fill="#FAFAFA" d="M407.264 543.372h107.585v61.174H407.264zM638.089 620.209h-109.75a3.347 3.347 0 0 1-3.347-3.347V553.92a3.347 3.347 0 0 1 3.347-3.347H638.09a3.347 3.347 0 0 1 3.347 3.347v62.942a3.348 3.348 0 0 1-3.348 3.347z"/><path fill="#FAFAFA" d="M596.382 629.284c-.417-1.113-.594-2.321-.594-3.528v-5.548h-24.293v5.548c0 1.207-.177 2.415-.594 3.528-.58 1.548-1.691 3.267-3.764 3.267H600.145c-2.072 0-3.182-1.719-3.763-3.267z"/><path fill="#2A94F4" d="M638.089 609.133h-109.75a3.347 3.347 0 0 1-3.347-3.347v-62.942a3.347 3.347 0 0 1 3.347-3.347H638.09a3.347 3.347 0 0 1 3.347 3.347v62.942a3.348 3.348 0 0 1-3.348 3.347z"/><path fill="#FAFAFA" d="M529.502 543.372h107.585v61.174H529.502z"/><path fill="#FFF" d="M660.316 600.878a7.681 7.681 0 0 0 2.023-1.102c.608-.458 1.156-1.021 1.437-1.649.3-.631.219-1.241-.111-1.739-.34-.504-.898-.927-1.507-1.285a13.398 13.398 0 0 0-1.99-.919c-.323-.118-.763-.275-1.175-.462a13.851 13.851 0 0 1-1.218-.611 14.024 14.024 0 0 1-4.185-3.675 15.7 15.7 0 0 1-2.611-5.179c-.543-1.92-.76-4.022-.372-6.258a11.803 11.803 0 0 1 1.156-3.398 10.312 10.312 0 0 1 2.526-3.139c1.082-.914 2.392-1.601 3.721-2.015a13.654 13.654 0 0 1 3.926-.605l1.341-.017a5.588 5.588 0 1 1-2.38 10.61c-.667-.325-1.021-.499-1.447-.52-.43-.035-1.097.348-1.582 1.188-.49.824-.798 1.975-.843 3.189a9.307 9.307 0 0 0 .621 3.73 9.955 9.955 0 0 0 2.917 4.076c.266.228.538.426.913.687.695.501 1.374 1.042 2.001 1.678.616.638 1.219 1.372 1.538 2.326.161.47.227 1 .145 1.501a3.285 3.285 0 0 1-.546 1.326c-.533.746-1.214 1.253-1.906 1.697a19.02 19.02 0 0 1-2.17 1.147.312.312 0 0 1-.258-.567c.008-.003.015-.007.023-.009l.013-.006z"/><path fill="#FAFAFA" d="M613.67 596.83h-59.085a6.29 6.29 0 0 1-6.29-6.289v-33.677a6.289 6.289 0 0 1 6.29-6.289h59.085a6.289 6.289 0 0 1 6.289 6.289v33.677a6.29 6.29 0 0 1-6.289 6.289z"/><path fill="#0B4870" d="M454.86 631.978a6.737 6.737 0 1 1 13.474 0"/><path fill="#FAB9AF" d="M402.56 575.419s4.474-2.139 6.438-3.259c1.964-1.117 7.015-2.654 7.423-3.018.407-.366 14.974-1.264 15.858-2.025.883-.761 1.742 1.786-2.033 2.613s-9.028 2.849-9.316 4.325c-.287 1.476 3.878 1.825 4.3 3.04.422 1.215-.118.944-.715 1.203-.598.261-4.955-2.152-6.871-1.466-1.916.686-4.845-.263-6.314.239-1.468.502-8.609 2.905-8.609 2.905l-.161-4.557z"/><path fill="#EAD8CF" d="m410.634 578.578 2.304-.852s-2.874-6.745-4.128-6.582c-1.446.19-3.248.666-3.248.666l5.072 6.768z"/><path fill="#CCE9FF" d="M411.161 579.744c-.295-.22-4.899-9.053-4.899-9.053l-9.837 1.334 5.316 10.463 9.42-2.744z"/><path fill="#FAB9AF" d="M439.498 616.685s5.035.456 7.34.501c2.304.044 7.531 1.331 8.078 1.223.549-.106 13.782 6.702 14.954 6.492 1.171-.206.596 2.476-3.144 1.232-3.74-1.245-9.397-2.211-10.419-1.068-1.02 1.144 2.448 3.622 2.183 4.905-.263 1.288-.593.767-1.252.684-.661-.085-3.221-4.47-5.257-4.869-2.035-.397-4.109-2.757-5.656-3.081-1.548-.325-9.06-1.944-9.06-1.944l2.233-4.075zM376.765 509.295s11.279-4.213 16.48 4.374c5.2 8.585 4.7 25.771-.987 27.886-5.684 2.113-14.225 1.008-17.135-4.364-2.91-5.372-5.539-13.137-5.412-18.328.126-5.192 4.093-8.07 7.054-9.568z"/><path fill="#FAB9AF" d="M391.035 541.947s-.911 8.095-.135 9.598c.776 1.498-14.079 0-14.079 0s-1.341-11.671-3.709-18.568c-2.369-6.891 17.923 8.97 17.923 8.97z"/><path fill="#0B4870" d="M373.112 532.977s.546 8.689 4.882 8.009c4.335-.678 10.139-13.383 11.949-14.015 1.81-.634 1.827-1.698 1.827-1.698l1.133 1.656 1.922.122s-1.753-5.16.892-7.265c2.646-2.103-2.746-16.701-16.648-11.841 0 0-10.679 2.944-10.291 9.016.389 6.075 1.945 12.994 4.334 16.016z"/><path fill="#E2D2CA" d="M392.662 553.351s-.049-2.864-1.348-3.142c-1.299-.273-14.341-1.527-15.935-.9v3.34s3.073 1.89 17.283.702z"/><path fill="#EEA886" d="M391.483 523.066c-.243-1.02-2.834-3.93-3.825-.812-.992 3.115 1.499 7.309 2.888 6.948 1.389-.357 1.554-3.553.937-6.136z"/><path fill="#0B4870" d="M410.416 662.734s1.774 12.663 1.026 14.908-7.486 12.726-7.486 12.726l-7.486 32.19h-8.983l-.749-37.43-3.743 35.933-7.486-.749-8.983-35.184s-15.842-.853-12.787-25.13c3.054-24.277 56.677 2.736 56.677 2.736z"/><path fill="#2A94F4" d="M353.672 660.381s6.916 2.037 18.712 3.337c11.795 1.3 41.265-.468 41.451-1.861.187-1.395-6.339-51.891-5.967-54.491.371-2.6.57-11.866.57-11.866.146 2.539 2.732 12.91 5.855 18.562 1.127 2.042 4.428 6.638 6.735 6.987 12.872 1.945 26.228 2.918 27.096 2.694-.729-.317.807-7.966 0-8.235-.706-.237-9.732-1.497-16.469-2.994-2.476-.55-8.422-14.627-8.422-14.627-1.115-2.508-5.174-18.304-6.435-23.771-2.846-12.329-2.408-12.841-2.408-12.841-8.628-2.61-21.726-7.924-21.726-7.924l-17.283-.702s-15.862 3.491-22.108 6.311c-.593.268-.595 14.151-2.221 17.791l5.179 10.926s2.991 21.643 3.612 31.269c.284 4.419-6.171 41.435-6.171 41.435z"/><path fill="#2A94F4" d="M350.332 594.776c.451 1.456 2.501 2.686 3.831 3.225a4.963 4.963 0 0 0 2.768.278l.677-.124v-.002l11.844-2.198s2.591-29.845-16.18-36.995c-.497.163-7.085 22.453-2.94 35.816z"/><path fill="#0B4870" d="M373.554 510.307s-14.192 1.439-.253 22.985l.253-22.985zM394.972 725.553s2.994 0 3.743 1.497.749 2.994.749 2.994h-12.726l.749-4.492h7.485z"/><path fill="#FFBE55" d="M490.055 574.784c-.615.394-1.33.503-2.014.69a794.89 794.89 0 0 1-7.164 1.916c-.23.061-.221.112-.095.281 2.572 3.456 5.139 6.916 7.707 10.376a3.6 3.6 0 0 1 .227.332c.248.424.186.688-.229.944a5.18 5.18 0 0 1-.919.434c-4.069 1.525-8.162 2.987-12.254 4.449-2.714.97-5.434 1.924-8.154 2.878-.522.183-1.057.329-1.603.426-.605.107-1.132-.045-1.574-.479-.465-.456-.794-1.011-1.12-1.565-2.227-3.778-4.317-7.635-6.459-11.461-.231-.412-.23-.412-.685-.294-4.335 1.127-8.67 2.255-13.006 3.381-.516.134-1.039.181-1.565.067-.826-.179-1.421-.665-1.77-1.424-4.398-9.543-8.789-19.088-13.185-28.632a10.743 10.743 0 0 1-.529-1.422v-.483c.13-.56.535-.77 1.058-.81 1.476-.114 2.954-.214 4.43-.329 2.446-.192 4.891-.388 7.336-.591.215-.018.441.013.645-.093h1.556c.672.194.987.754 1.31 1.295 1.837 3.075 3.668 6.153 5.501 9.23 3.254 5.464 6.51 10.927 9.757 16.394.114.192.216.222.419.173 4.199-1.012 8.399-2.018 12.599-3.024l6.404-1.532c.077-.018.152-.043.229-.065-.02-.125-.1-.201-.161-.287-2.044-2.921-4.088-5.842-6.134-8.762-.531-.757-.385-1.163.534-1.335 1.009-.189 2.027-.327 3.04-.494 1.885-.31 3.769-.626 5.654-.937.299-.049.601-.09.901-.131.488-.067.891.118 1.251.429.601.519 1.043 1.175 1.536 1.786 2.072 2.567 4.106 5.163 6.21 7.704.095.115.179.244.314.321.002.215.002.43.002.644zm-47.775 9.425c.108-.022.222-.041.335-.068.989-.238 1.977-.479 2.966-.718 2.897-.699 5.795-1.397 8.692-2.097.415-.1.472-.248.248-.601a6.5 6.5 0 0 1-.153-.252c-4.816-8.317-9.632-16.634-14.44-24.956-.147-.255-.316-.324-.584-.297-.551.056-1.104.092-1.656.14l-3.952.344c-1.549.135-3.097.275-4.646.406-.399.034-.471.123-.338.499.03.084.071.164.111.243.219.439.444.876.659 1.318 4.134 8.503 8.268 17.006 12.4 25.51.062.127.147.246.158.395.008.121.101.128.2.134zm23.508 9.997c.066-.018.162-.039.255-.07 4.762-1.622 9.525-3.245 14.286-4.87 1.604-.547 3.206-1.102 4.808-1.654.284-.098.312-.169.167-.427a3.658 3.658 0 0 0-.22-.336c-1.567-2.153-3.136-4.304-4.701-6.459-.546-.752-1.078-1.514-1.616-2.271-.152-.213-.308-.377-.619-.292-1.567.424-3.137.837-4.708 1.248-4.798 1.255-9.597 2.508-14.397 3.757-.198.051-.254.094-.131.303 1.907 3.25 3.803 6.507 5.706 9.76.211.362.409.734.688 1.052.12.139.258.247.482.259zm15.041-28.542c-.152.031-.326.07-.502.101l-6.639 1.197c-.703.127-.726.186-.306.757 1.83 2.491 3.662 4.98 5.489 7.474.103.141.188.187.372.14 1.91-.487 3.823-.964 5.736-1.439.571-.142 1.148-.263 1.719-.405.406-.101.437-.215.184-.534-.895-1.126-1.788-2.254-2.679-3.383-.936-1.185-1.869-2.372-2.803-3.558-.141-.178-.3-.332-.571-.35z"/><path fill="#D3D3D3" d="M904.022 754H123.978c-6.615 0-11.978-5.363-11.978-11.978 0-6.615 5.363-11.978 11.978-11.978h780.045c6.615 0 11.978 5.363 11.978 11.978C916 748.637 910.637 754 904.022 754z"/><path fill="#0B4870" d="M385.24 626.737h62.134v5.989H385.24z"/><path fill="#FFBE55" d="M391.358 667.08h-18.851c-13.159 0-23.826-11.507-23.826-25.702l5.959-51.495c2.048-13.726 14.752-22.54 27.64-22.54 13.03 0 25.81 9.032 27.697 22.939l5.207 51.095c0 14.196-10.667 25.703-23.826 25.703z"/><path fill="#2A94F4" d="M385.315 730.045h-6.526a2.694 2.694 0 0 1-2.694-2.694V612.809a2.695 2.695 0 0 1 2.694-2.695h6.526a2.694 2.694 0 0 1 2.694 2.695V727.35a2.695 2.695 0 0 1-2.694 2.695z"/><path fill="#2A94F4" d="M387.222 616.488h-10.895a5.221 5.221 0 0 1-5.221-5.221v-2.305a5.221 5.221 0 0 1 5.221-5.221h10.895a5.221 5.221 0 0 1 5.221 5.221v2.305a5.221 5.221 0 0 1-5.221 5.221z"/><path fill="#FFBE55" d="M408.8 692.615h-53.109a4.138 4.138 0 0 1-4.138-4.138v-7.444a4.138 4.138 0 0 1 4.138-4.138H408.8a4.138 4.138 0 0 1 4.138 4.138v7.444a4.137 4.137 0 0 1-4.138 4.138z"/><circle cx="521.868" cy="422.521" r="7.754" fill="#FFBE55" opacity=".29"/><path fill="#FFBE55" d="M521.868 393.905c-15.804 0-28.616 12.812-28.616 28.616h57.232c0-15.804-12.811-28.616-28.616-28.616z"/><path fill="#0B4870" d="M520.657 350.985h2.422v42.92h-2.422z"/><path fill="#CCE9FF" d="M602.335 558.784c-.732 1.057-1.323 2.199-1.967 3.309-5.624 9.689-11.238 19.384-16.855 29.078-.268.463-.267.463-.535 0-6.183-10.67-12.365-21.339-18.551-32.007-.077-.133-.123-.295-.271-.38v-.095l7.645.017c.316.551.629 1.103.947 1.652l5.35 9.229c1.648 2.843 3.296 5.686 4.938 8.532.156.271.262.271.416 0 .582-1.02 1.175-2.034 1.764-3.051 1.927-3.324 3.854-6.647 5.779-9.971 1.233-2.129 2.461-4.261 3.692-6.392l7.645-.017c.003.033.003.064.003.096z"/><path fill="#0B4870" d="M571.802 558.705c2.257-.005 4.513-.005 6.77-.024.29-.003.375.164.488.359a6469.37 6469.37 0 0 0 3.89 6.706c.085.146.176.287.269.437.19-.118.237-.293.322-.438 1.291-2.22 2.585-4.439 3.862-6.667.16-.279.321-.402.66-.398 2.209.023 4.418.02 6.627.026-1.231 2.131-2.459 4.262-3.692 6.392-1.925 3.325-3.853 6.648-5.779 9.971-.589 1.016-1.182 2.031-1.764 3.051-.155.271-.26.271-.416 0-1.643-2.846-3.291-5.689-4.938-8.532-1.783-3.077-3.568-6.152-5.35-9.229-.32-.551-.634-1.103-.949-1.654z"/><path fill="#FAB9AF" d="m394.654 722.559-.431 2.994h-5.988v-2.994z"/><path fill="#FFBE55" d="M778.328 724.928a4.904 4.904 0 0 1-4.904 4.904h-18.917a4.904 4.904 0 0 1-4.904-4.904v-44.14a4.904 4.904 0 0 1 4.904-4.904h18.917a4.904 4.904 0 0 1 4.904 4.904v44.14z"/><path fill="#CCE9FF" d="M766.234 625.074s-15.486 31.479 7.331 36.84c22.817 5.361 23.475-18.384 21.137-28.17s33.869-36.094 4.007-59.369c-29.862-23.274-53.135 38.692-32.475 50.699z"/><path fill="#CCE9FF" d="M737.398 642.163s-.729 20.715 12.867 18.083c13.596-2.632 8.204-15.59 4.576-20.299-3.628-4.709 9.521-27.651-12.208-32.969-21.728-5.319-19.277 33.712-5.235 35.185z"/><path fill="none" stroke="#4D4D4D" stroke-miterlimit="10" d="m739.717 622.635 16.815 53.248M749.526 633.478l-3.562 8.941-8.116-4.471M784.472 592.508l-14.425 83.375M792.934 605.119l-11.95 7.548-7.667-10.35M789.665 622.604l-11.951 7.547-7.667-10.35"/><path fill="#FFBE55" d="M284.999 724.928a4.904 4.904 0 0 1-4.904 4.904h-18.917a4.904 4.904 0 0 1-4.904-4.904v-44.14a4.904 4.904 0 0 1 4.904-4.904h18.917a4.904 4.904 0 0 1 4.904 4.904v44.14z"/><path fill="#CCE9FF" d="M272.904 625.074s-15.486 31.479 7.331 36.84c22.817 5.361 23.475-18.384 21.137-28.17-2.338-9.786 33.869-36.094 4.007-59.369-29.862-23.274-53.135 38.692-32.475 50.699z"/><path fill="#CCE9FF" d="M244.068 642.163s-.729 20.715 12.867 18.083c13.596-2.632 8.204-15.59 4.576-20.299-3.629-4.709 9.52-27.651-12.208-32.969s-19.276 33.712-5.235 35.185z"/><path fill="none" stroke="#4D4D4D" stroke-miterlimit="10" d="m246.387 622.635 16.815 53.248M256.196 633.478l-3.561 8.941-8.116-4.471M291.142 592.508l-14.425 83.375M299.605 605.119l-11.951 7.548-7.667-10.35M296.335 622.604l-11.95 7.547-7.668-10.35"/></svg>