<svg xmlns="http://www.w3.org/2000/svg" viewBox="0 0 3700 3700" width="3700" height="3700"><g transform="translate(533.0 257.0) rotate(0.0 1391.5 521.5) scale(0.9646600951003031 0.9643879187990919)"><svg width="2884.954" height="1081.515" viewBox="0 0 2884.954 1081.515"><path d="M1496.774 473.668H1307.09c-4.143 0-7.5-3.358-7.5-7.5s3.357-7.5 7.5-7.5h189.685a7.5 7.5 0 1 1-.001 15z" fill="#fdc93a"/><path d="M1691.754 278.688a7.5 7.5 0 0 1-7.5-7.5v-75.475a7.5 7.5 0 0 1 7.5-7.5h803.865a7.5 7.5 0 0 1 0 15h-796.365v67.975a7.5 7.5 0 0 1-7.5 7.5zm994.474 452.09H2483.04c-4.143 0-7.5-3.358-7.5-7.5s3.357-7.5 7.5-7.5h195.688V386.631c0-4.142 3.357-7.5 7.5-7.5s7.5 3.358 7.5 7.5v336.647a7.5 7.5 0 0 1-7.5 7.5z" fill="#d2e23d"/><path d="M217.788 1081.515c-58.173 0-112.865-22.654-154-63.789S0 921.9 0 863.727s22.654-112.865 63.789-154 95.826-63.789 154-63.789 112.864 22.654 153.999 63.789 63.789 95.826 63.789 154-22.654 112.865-63.789 154-95.827 63.788-154 63.788zm0-420.576C105.97 660.939 15 751.909 15 863.727s90.97 202.788 202.788 202.788c111.817 0 202.788-90.97 202.788-202.788s-90.971-202.788-202.788-202.788z" fill="#91a0e2"/><path d="M283.162 767.748c13.186 10.842 19.779 26.715 19.779 47.616 0 17.192-5.814 31.06-17.435 41.609-11.625 10.549-26.812 16.02-45.564 16.409l-1.758 20.804h-57.432l-1.758-62.12h24.614c11.524 0 20.365-1.268 26.518-3.809 6.153-2.537 9.23-6.639 9.23-12.307 0-3.709-.929-6.593-2.784-8.645-1.859-2.051-4.35-3.077-7.472-3.077-3.91 0-6.79 1.223-8.644 3.663-1.859 2.445-2.784 5.618-2.784 9.523h-61.241c-.586-12.11 1.804-23.148 7.179-33.111 5.371-9.962 13.722-17.92 25.053-23.881 11.327-5.957 25.392-8.937 42.195-8.937 21.684 0 39.118 5.421 52.304 16.263zM183.096 971.25c-6.84-6.053-10.255-13.671-10.255-22.855 0-9.377 3.416-17.142 10.255-23.295 6.836-6.153 15.919-9.23 27.251-9.23 11.135 0 20.118 3.077 26.958 9.23 6.835 6.153 10.255 13.918 10.255 23.295 0 9.184-3.42 16.803-10.255 22.855-6.84 6.057-15.823 9.083-26.958 9.083-11.332 0-20.415-3.026-27.251-9.083zm34.692-310.311a7.5 7.5 0 0 1-7.5-7.5V540.871a7.5 7.5 0 0 1 7.5-7.5h310.14a7.5 7.5 0 0 1 0 15h-302.64v105.068a7.5 7.5 0 0 1-7.5 7.5zm1782.88 233.437H1099.23a7.5 7.5 0 0 1-7.5-7.5V704.868a7.5 7.5 0 0 1 15 0v174.508h893.938c4.143 0 7.5 3.358 7.5 7.5s-3.357 7.5-7.5 7.5z" fill="#91a0e2"/><path d="M1671.653 556.295c-6.384-5.648-9.571-12.759-9.571-21.331 0-8.751 3.188-15.998 9.571-21.741 6.38-5.743 14.857-8.614 25.433-8.614 10.393 0 18.775 2.872 25.159 8.614 6.38 5.743 9.572 12.99 9.572 21.741 0 8.572-3.192 15.682-9.572 21.331-6.384 5.653-14.767 8.478-25.159 8.478-10.575 0-19.053-2.825-25.433-8.478zm58.523-200.18-7.109 129.625h-51.96l-7.109-129.625z" fill="#fdc93a"/><path d="M1691.754 668.648a7.503 7.503 0 0 1-5.304-2.197l-194.979-194.98a7.5 7.5 0 0 1 0-10.606l194.979-194.98a7.5 7.5 0 0 1 10.608 0l194.98 194.98a7.5 7.5 0 0 1 0 10.606l-194.98 194.98a7.503 7.503 0 0 1-5.304 2.197zm-184.373-202.48 184.373 184.374 184.374-184.374-184.374-184.374z" fill="#fdc93a"/><path d="M2483.04 935.489h-482.372a7.5 7.5 0 0 1-7.5-7.5V418.566a7.5 7.5 0 0 1 7.5-7.5h482.372a7.5 7.5 0 0 1 7.5 7.5v509.423a7.5 7.5 0 0 1-7.5 7.5zm-474.872-15h467.372V426.066h-467.372z" fill="#f36a8d"/><g fill="#d2e23d"><path d="M2438.266 828.475h-392.394a4.5 4.5 0 0 1 0-9h392.394a4.5 4.5 0 0 1 0 9z"/><path d="M2438.266 828.475h-72.283a4.5 4.5 0 0 1-4.5-4.5V513.573a4.5 4.5 0 0 1 4.5-4.5h72.283a4.5 4.5 0 0 1 4.5 4.5v310.402a4.5 4.5 0 0 1-4.5 4.5zm-67.784-9h63.283V518.073h-63.283zm-37.544 9h-72.282a4.5 4.5 0 0 1-4.5-4.5V586.316a4.5 4.5 0 0 1 4.5-4.5h72.282a4.5 4.5 0 0 1 4.5 4.5v237.659a4.5 4.5 0 0 1-4.5 4.5zm-67.782-9h63.282V590.816h-63.282zm-37.544 9h-72.283a4.5 4.5 0 0 1-4.5-4.5v-156.4a4.5 4.5 0 0 1 4.5-4.5h72.283a4.5 4.5 0 0 1 4.5 4.5v156.4a4.5 4.5 0 0 1-4.5 4.5zm-67.783-9h63.283v-147.4h-63.283zm526.707-422.64c-109.407 0-198.417-89.01-198.417-198.417S2577.129 0 2686.536 0c109.408 0 198.418 89.01 198.418 198.417s-89.01 198.418-198.418 198.418zm0-381.835c-101.137 0-183.417 82.281-183.417 183.417s82.28 183.417 183.417 183.417 183.418-82.281 183.418-183.417S2787.673 15 2686.536 15z"/><path d="M2662.239 298.879a15 15 0 0 1-12.194-6.265l-73.835-103.083c-4.824-6.735-3.275-16.105 3.46-20.929 6.735-4.825 16.105-3.274 20.929 3.459l61.641 86.057 110.234-153.899c4.825-6.734 14.196-8.283 20.929-3.459 6.735 4.824 8.284 14.194 3.46 20.929l-122.429 170.924a15.001 15.001 0 0 1-12.195 6.266z"/></g><path d="M1297.491 709.702H527.928a7.5 7.5 0 0 1-7.5-7.5V379.541a7.5 7.5 0 0 1 7.5-7.5h769.563a7.5 7.5 0 0 1 7.5 7.5v322.662a7.5 7.5 0 0 1-7.5 7.499zm-762.063-15h754.563V387.041H535.428z" fill="#91a0e2"/><path d="M757.72 680.568a7.046 7.046 0 0 1-1.685-.204c-4.245-1.053-7.107-5.552-9.281-14.591-5.106-21.227-3.19-45.804 5.395-69.203 6.434-17.537 16.025-32.659 26.446-42.024 1.556-43.59-2.64-81.02-12.058-105.325-6.079-15.688-13.217-23.712-21.215-23.85a18.099 18.099 0 0 0-.233-.002c-22.359 0-50.911 55.279-60.056 76.659a4.5 4.5 0 0 1-8.276-3.538c.354-.828 8.815-20.518 21.184-40.489 17.26-27.867 33.271-41.861 47.533-41.628 12.014.206 21.924 10.164 29.454 29.597 11.562 29.838 13.428 71.132 12.792 102.013 9.1-4.913 17.864-4.742 24.951.571 10.406 7.802 19.219 23.246 26.193 45.902a217.46 217.46 0 0 1 2.134 7.401c3.016-7.499 7.211-14.593 11.846-18.616 5.134-4.457 9.571-4.21 12.388-3.219 2.363.832 4.454 2.456 6.301 4.928 3.922-21.25 14.094-53.511 40.123-89.398 15.17-20.917 31.632-35.125 48.929-42.233 16.193-6.654 32.222-6.562 46.355.264 16.676 8.054 29.255 24.889 35.422 47.403 1.978 7.222 3.267 14.876 3.871 22.88 11.365-4.02 22.961-5.295 34.116-3.691 19.904 2.863 36.115 14.521 45.422 32.077a66.811 66.811 0 0 1 1.702-2.398c13.629-18.333 38.22-35.364 73.089-50.62a4.5 4.5 0 0 1 3.608 8.245c-27.061 11.839-47.714 24.779-61.388 38.461-6.066 6.069-10.062 11.578-12.671 16.358a74.5 74.5 0 0 1 1.204 3.854c5.99 21.166-.344 25.774-3.345 26.773-3.38 1.126-7.841-.465-10.183-6.559-2.854-7.425-1.095-16.338 2.564-24.461-7.368-18.023-22.389-30.105-41.284-32.824-10.728-1.543-21.754.014-32.441 4.301.133 15.929-2.278 33.03-7.211 50.694-11.638 41.673-27.702 67.039-44.072 69.595-6.529 1.017-12.547-1.857-16.518-7.889-4.714-7.163-6.362-18.112-4.64-30.832 1.89-13.963 7.704-28.998 16.814-43.48 11.794-18.748 26.639-33.313 42.93-42.122a90.304 90.304 0 0 1 3.594-1.841c-1.787-34.339-16.678-57.216-34.498-65.822-11.769-5.684-25.262-5.699-39.021-.044-15.507 6.372-31.09 19.925-45.065 39.193-30.031 41.406-38.796 78.557-40.567 101.464.381 1.68.741 3.458 1.081 5.336 4.063 22.446.97 23.879-1.288 24.925-2.017.934-4.36.358-5.833-1.431-2.586-3.142-3.966-14.144-3.056-28.191-3.005-12.361-6.319-14.176-7.033-14.427-1.076-.379-2.656.793-3.5 1.526-6.986 6.064-12.864 22.143-13.499 30.773 1.152 6.527.828 7.382.512 8.212-.712 1.875-2.595 3.08-4.6 2.908-3.51-.292-4.151-3.5-4.62-5.843-.256-1.278-.349-2.777-.297-4.438-2.662-14.719-11.827-53.043-28.968-65.895-4.73-3.546-10.651-3.031-17.596 1.538a38.246 38.246 0 0 0-2.294 1.636 535.84 535.84 0 0 1-1.237 20.633c-3.767 47.178-12.701 87.285-21.728 97.534-2.457 2.794-4.9 3.474-6.696 3.474zm20.203-112.23c-6.736 8.25-12.89 19.247-17.324 31.333-7.98 21.75-9.789 44.479-5.094 63.999.977 4.06 1.888 6.157 2.482 7.204 4.869-5.836 14.301-36.763 18.774-87.116.463-5.202.85-10.348 1.162-15.42zm259.747-30.678c-14.576 8.089-28.158 21.289-39.049 38.603-12.977 20.628-21.688 50.269-12.274 64.573 2.061 3.132 4.549 4.423 7.611 3.944 9.243-1.443 24.424-18.84 36.792-63.123 4.481-16.049 6.626-30.758 6.92-43.997z" fill="#d2e23d"/></svg></g><g transform="translate(841.0 1419.0) rotate(0.0 1099.5 977.0) scale(1.0912566472863985 1.0904796771197942)"><svg width="2015.108" height="1791.872" viewBox="0 0 2015.108 1791.872"><path d="M816.938 1190.477h381.232v601.395H816.938z" fill="#91a0e2"/><path d="M1198.17 1258.65v65.149l-381.232-25.054v-40.095z"/><path d="M1967.608 1258.65H47.5c-22.091 0-40-17.909-40-40V47.5c0-22.091 17.909-40 40-40h1920.108c22.091 0 40 17.909 40 40v1171.15c0 22.091-17.909 40-40 40z" fill="#576cc0"/><path d="M13.181 185.749h1994.427v60H13.181z" fill="#c0d625"/><path d="M2007.609 49.785v134.463H7.504V49.785c0-23.351 18.922-42.284 42.284-42.284h1915.537c23.352 0 42.284 18.933 42.284 42.284z" fill="#fff"/><path d="M1967.608 1266.15H47.5c-26.191 0-47.5-21.308-47.5-47.5V47.5C0 21.308 21.309 0 47.5 0h1920.108c26.191 0 47.5 21.308 47.5 47.5v1171.15c0 26.192-21.309 47.5-47.5 47.5zM47.5 15C29.58 15 15 29.579 15 47.5v1171.15c0 17.921 14.58 32.5 32.5 32.5h1920.108c17.921 0 32.5-14.579 32.5-32.5V47.5c0-17.921-14.579-32.5-32.5-32.5z" fill="#91a0e2"/><path d="M1693.213 139.528c-24.07 0-43.653-19.583-43.653-43.653s19.583-43.653 43.653-43.653 43.653 19.583 43.653 43.653-19.582 43.653-43.653 43.653zm0-77.306c-18.557 0-33.653 15.097-33.653 33.653s15.097 33.653 33.653 33.653 33.653-15.097 33.653-33.653-15.096-33.653-33.653-33.653z" fill="#ef4a6b"/><path d="M1798.923 139.528c-24.07 0-43.653-19.583-43.653-43.653s19.583-43.653 43.653-43.653 43.653 19.583 43.653 43.653-19.582 43.653-43.653 43.653zm0-77.306c-18.557 0-33.653 15.097-33.653 33.653s15.097 33.653 33.653 33.653 33.653-15.097 33.653-33.653-15.096-33.653-33.653-33.653z" fill="#fcae1d"/><path d="M1904.633 139.528c-24.07 0-43.653-19.583-43.653-43.653s19.583-43.653 43.653-43.653 43.653 19.583 43.653 43.653-19.582 43.653-43.653 43.653zm0-77.306c-18.557 0-33.653 15.097-33.653 33.653s15.097 33.653 33.653 33.653 33.653-15.097 33.653-33.653-15.096-33.653-33.653-33.653z" fill="#c0d625"/><path d="M668.358 1748.754h678.391v43.118H668.358zM77.282 313.809h1059.959v881.053H77.282z" fill="#91a0e2"/><path d="M140.161 389.257h280.113v20H140.161z" fill="#f3ead9"/><path d="M140.161 478.027H304.81v20H140.161z" fill="#f796af"/><path d="M359.533 478.027h167.54v20h-167.54z" fill="#fdc93a"/><path d="M586.526 478.027h488.415v20H586.526z" fill="#d2e23d"/><path d="M195.505 566.796h167.581v20H195.505z" fill="#f796af"/><path d="M195.505 655.566h560.226v20H195.505z" fill="#d2e23d"/><path d="M814.715 655.566h263.229v20H814.715z" fill="#f3ead9"/><path d="M195.505 744.335H495.46v20H195.505z" fill="#f796af"/><path d="M541.838 744.335h213.893v20H541.838z" fill="#fdc93a"/><path d="M195.505 833.105h560.226v20H195.505z" fill="#f3ead9"/><path d="M193.675 921.875h185.973v20H193.675z" fill="#fdc93a"/><path d="M430.118 921.875h185.973v20H430.118z" fill="#d2e23d"/><path d="M240.193 1010.644H622.37v20H240.193zm427.936 0h295.253v20H668.129z" fill="#f3ead9"/><path d="M240.193 1099.414h240.23v20h-240.23z" fill="#d2e23d"/><path d="M541.838 1099.414h145.796v20H541.838z" fill="#fdc93a"/><path d="M77.282 813.105H1137.24v60H77.282z" fill="#d2e23d"/><path d="M1261.35 313.809h674.629v881.642H1261.35z" fill="#7584d7"/><path d="M1323.588 389.644h198.828v20h-198.828z" fill="#91a0e2"/><path d="M1323.588 478.473h158.758v20h-158.758z" fill="#f36a8d"/><g fill="#91a0e2"><path d="M1323.588 567.302h158.758v20h-158.758zm0 88.829h184.487v20h-184.487zm0 88.829h198.828v20h-198.828z"/></g><path d="M1323.588 833.789h198.828v20h-198.828zm0 88.828h151.35v20h-151.35z" fill="#dfeb77"/><path d="M1323.588 1011.446h118.211v20h-118.211z" fill="#fed975"/><path d="M1323.588 1100.275h118.211v20h-118.211z" fill="#91a0e2"/><path d="M1572.646 389.644h301.095v20h-301.095z" fill="#fed975"/><path d="M1613.042 478.473h260.698v20h-260.698zm0 88.829h260.698v20h-260.698z" fill="#91a0e2"/><path d="M1572.646 656.131h301.095v20h-301.095z" fill="#fed975"/><path d="M1688.96 744.96h184.78v20h-184.78z" fill="#91a0e2"/><path d="M1793.558 833.789h80.183v20h-80.183zm-220.912 88.828h301.095v20h-301.095z" fill="#f3ead9"/><path d="M1572.646 1011.446h301.095v20h-301.095z" fill="#91a0e2"/><path d="M1688.96 1100.275h184.78v20h-184.78z" fill="#f36a8d"/><path d="M1194.295 313.809h10v881.053h-10z" fill="#7584d7"/></svg></g><g transform="translate(2373.0 2613.0) rotate(0.0 222.0 199.0) scale(1.7212638108160496 1.7272656256781036)"><svg width="257.95" height="230.422" viewBox="0 0 257.95 230.422"><path d="M223.579 67.824 14.649 7.731c-4.556-1.309-8.57 3.294-6.652 7.63l88.25 199.452c1.842 4.166 7.627 4.492 9.929.562l29.671-50.682c1.792-3.063 5.951-3.699 8.577-1.312l63.915 58.095a5.587 5.587 0 0 0 7.891-.377l32.773-36.056a5.587 5.587 0 0 0-.377-7.891l-64.531-58.655c-2.555-2.322-2.413-6.383.299-8.521l41.097-32.397c3.576-2.818 2.461-8.497-1.912-9.755" fill="#d2e23d"/><path d="M212.092 230.422a13.04 13.04 0 0 1-8.796-3.396l-62.167-56.506-28.479 48.644c-2.495 4.26-7.104 6.74-12.032 6.455a13.032 13.032 0 0 1-11.228-7.771L1.139 18.395C-.94 13.696-.134 8.371 3.243 4.498 6.619.627 11.784-.898 16.723.523l208.929 60.093c4.739 1.363 8.274 5.216 9.224 10.056s-.866 9.743-4.741 12.796l-39.322 30.997 62.86 57.135c5.339 4.854 5.734 13.146.882 18.486l-32.773 36.056a13.052 13.052 0 0 1-9.69 4.28m-71.403-75.995a13.02 13.02 0 0 1 8.782 3.406l62.498 56.805 30.198-33.224-63.116-57.367a13.063 13.063 0 0 1-4.276-10.141 13.063 13.063 0 0 1 4.976-9.818L217.918 74 16.513 16.071l85.08 192.288 27.782-47.455a13.034 13.034 0 0 1 9.315-6.325 13.371 13.371 0 0 1 1.999-.152m80.807-79.399.01.003z" fill="#fff"/></svg></g><g transform="translate(297.0 2510.0) rotate(0.0 462.0 342.0) scale(1.0745535485851712 1.0751386755989103)"><svg width="859.892" height="636.197" viewBox="0 0 859.892 636.197"><path d="M835.22 628.697H24.672c-9.485 0-17.172-7.689-17.172-17.172V24.672C7.5 15.189 15.188 7.5 24.672 7.5H835.22c9.485 0 17.172 7.689 17.172 17.172v586.853c0 9.483-7.687 17.172-17.172 17.172" fill="#fff"/><path d="M835.22 636.197H24.672C11.067 636.197 0 625.13 0 611.525V24.672C0 11.068 11.067 0 24.672 0H835.22c13.605 0 24.672 11.068 24.672 24.672v586.853c0 13.605-11.067 24.672-24.672 24.672M24.672 15C19.338 15 15 19.339 15 24.672v586.853c0 5.333 4.338 9.672 9.672 9.672H835.22c5.333 0 9.672-4.339 9.672-9.672V24.672c0-5.333-4.339-9.672-9.672-9.672z" fill="#fdc93a"/><path d="M777.654 371.629c0 106.97-86.716 193.686-193.687 193.686-106.97 0-193.686-86.716-193.686-193.686 0-106.971 86.716-193.687 193.686-193.687 106.971 0 193.687 86.716 193.687 193.687" fill="#f36a8d"/><g fill="none"><path d="M644.059 219.461V187.46c-18.919-6.169-39.113-9.518-60.092-9.518-8.4 0-16.675.536-24.793 1.573v39.946zm114.886 199.772h12.807a194.067 194.067 0 0 0 5.902-47.604c0-12.754-1.246-25.216-3.599-37.282h-15.11zm-55.139-199.772a193.56 193.56 0 0 0-44.747-26.421v26.421zm-59.747 314.657h-84.885v29.623a195.599 195.599 0 0 0 24.793 1.573c20.979 0 41.173-3.349 60.092-9.518zm-84.885-199.771h84.885v84.886h-84.885zm-15-152.305c-29.761 6.215-57.015 19.257-80.045 37.419h80.045zm114.885 152.305h84.885v84.886h-84.885zm0-15.001h84.885v-56.92a194.663 194.663 0 0 0-23.235-27.966h-61.65zm111.448 0a192.305 192.305 0 0 0-11.562-30.853v30.853zm-211.333-84.885h84.885v84.885h-84.885zm-99.886 0h84.886v84.885h-84.886zm0 99.886h84.886v84.886h-84.886zm199.771 99.886v84.886h50.438a194.743 194.743 0 0 0 34.448-38.289v-46.597zm99.886 20.53a192.283 192.283 0 0 0 8.362-20.531h-8.362zm-199.771-20.53h84.885v84.886h-84.885zm-80.639 99.885c19.698 12.807 41.866 22.131 65.639 27.096v-27.096zm-77.907-99.885c9.233 27.048 24.284 51.398 43.66 71.564v-71.564zm258.431 115.983a193.156 193.156 0 0 0 30.34-16.098h-30.34zM444.288 237.459c-21.811 22.701-38.138 50.704-46.86 81.887h46.86zm15 196.774h84.886v84.886h-84.886zm-15-99.886H393.88a194.617 194.617 0 0 0-3.599 37.282c0 16.427 2.053 32.373 5.902 47.604h48.104v-84.886z"/></g><path d="M444.288 334.347h15v84.886h-15zm15-15.001v-84.885h-12.062a197.78 197.78 0 0 0-2.938 2.998v81.887zm0 114.887h-15v71.564a194.637 194.637 0 0 0 14.15 13.321h.85zm99.886-214.772v-39.946a192.85 192.85 0 0 0-15 2.527v37.419zm-15 114.886h15v84.886h-15zm0 199.771v27.096a193.325 193.325 0 0 0 15 2.527v-29.623zm0-99.885h15v84.886h-15zm0-199.772h15v84.885h-15zm99.885 0h15v84.885h-15zm0 299.657v21.678a191.904 191.904 0 0 0 15-5.581v-16.098h-15zm15-314.657V193.04a192.867 192.867 0 0 0-15-5.581v32.001h15zm-15 214.772h15v84.886h-15zm0-99.886h15v84.886h-15zm99.886 99.886v46.597a193.467 193.467 0 0 0 15-26.067v-20.531h-15zm0-99.886h15v84.886h-15zm15-15.001v-30.853a193.467 193.467 0 0 0-15-26.067v56.92zm-214.771-84.885h176.535a194.73 194.73 0 0 0-16.903-15H464.129a194.877 194.877 0 0 0-16.903 15h12.062zm-84.886 99.886h314.766a192.249 192.249 0 0 0-3.548-15H397.428a192.703 192.703 0 0 0-3.548 15h50.408z" fill="#f3ead9"/><path d="M459.288 434.233h308.018a192.561 192.561 0 0 0 4.445-15H396.184a191.695 191.695 0 0 0 4.445 15h43.66zm99.886 99.885h130.225a194.508 194.508 0 0 0 20.098-15H458.438a194.496 194.496 0 0 0 20.097 15h65.639z" fill="#f3ead9"/><path d="M323.173 147.957H80.207c-14.682 0-26.584-11.902-26.584-26.584v-6.736c0-14.682 11.902-26.584 26.584-26.584h242.966c14.682 0 26.583 11.902 26.583 26.584v6.736c.001 14.682-11.901 26.584-26.583 26.584z" fill="#fff"/><path d="M323.173 155.456H80.207c-18.793 0-34.083-15.29-34.083-34.083v-6.736c0-18.794 15.29-34.084 34.083-34.084h242.966c18.793 0 34.083 15.29 34.083 34.084v6.736c.001 18.793-15.289 34.083-34.083 34.083zM80.207 95.553c-10.522 0-19.083 8.561-19.083 19.084v6.736c0 10.522 8.561 19.083 19.083 19.083h242.966c10.522 0 19.083-8.561 19.083-19.083v-6.736c0-10.523-8.561-19.084-19.083-19.084z" fill="#fdc93a"/><path d="M162.261 268.765H70.962c-9.576 0-17.339-7.763-17.339-17.339V226.2c0-9.576 7.763-17.339 17.339-17.339h91.299c9.576 0 17.339 7.763 17.339 17.339v25.226c-.001 9.576-7.763 17.339-17.339 17.339z" fill="#fff"/><path d="M162.26 276.265H70.962c-13.696 0-24.838-11.143-24.838-24.839v-25.227c0-13.696 11.143-24.839 24.838-24.839h91.298c13.696 0 24.839 11.143 24.839 24.839v25.227c0 13.696-11.142 24.839-24.839 24.839zm-91.298-59.904c-5.425 0-9.838 4.414-9.838 9.839v25.227c0 5.425 4.414 9.839 9.838 9.839h91.298c5.425 0 9.839-4.414 9.839-9.839V226.2c0-5.425-4.414-9.839-9.839-9.839z" fill="#fdc93a"/><path d="M332.418 268.765H241.12c-9.576 0-17.339-7.763-17.339-17.339V226.2c0-9.576 7.763-17.339 17.339-17.339h91.298c9.576 0 17.339 7.763 17.339 17.339v25.226c0 9.576-7.763 17.339-17.339 17.339z" fill="#fff"/><path d="M332.418 276.265h-91.299c-13.696 0-24.838-11.143-24.838-24.839v-25.227c0-13.696 11.143-24.839 24.838-24.839h91.299c13.696 0 24.838 11.143 24.838 24.839v25.227c.001 13.696-11.142 24.839-24.838 24.839zm-91.299-59.904c-5.425 0-9.838 4.414-9.838 9.839v25.227c0 5.425 4.414 9.839 9.838 9.839h91.299c5.425 0 9.838-4.414 9.838-9.839V226.2c0-5.425-4.414-9.839-9.838-9.839z" fill="#fdc93a"/></svg></g><g transform="translate(3565.0 787.0) rotate(46.17735180820804 -373.5 462.5) scale(-1.0738451851628235 1.0738046232803165)"><svg width="695.631" height="861.423" viewBox="0 0 695.631 861.423"><g fill="#91a0e2"><path d="M20.828 861.424a5.001 5.001 0 0 1-4.899-4.028 958.966 958.966 0 0 1-3.266-17.288 5 5 0 1 1 9.843-1.763 947.473 947.473 0 0 0 3.231 17.106 5 5 0 0 1-4.91 5.974zm-10.654-66.508a5 5 0 0 1-4.958-4.406 763.076 763.076 0 0 1-3.387-34.976 5.001 5.001 0 0 1 4.623-5.352c2.736-.195 5.15 1.868 5.351 4.623a753.122 753.122 0 0 0 3.342 34.516 5 5 0 0 1-4.971 5.595zm-5.172-84.569h-.011a5 5 0 0 1-4.99-5.01 596.014 596.014 0 0 1 1.095-35.107 5.001 5.001 0 0 1 9.982.612 586.275 586.275 0 0 0-1.076 34.515 5 5 0 0 1-5 4.99zm6.432-84.24a5 5 0 0 1-4.946-5.777 483.886 483.886 0 0 1 6.715-34.533 5 5 0 1 1 9.739 2.271 473.585 473.585 0 0 0-6.575 33.816 5.003 5.003 0 0 1-4.934 4.224zm20.588-81.881a5 5 0 0 1-4.712-6.675 431.384 431.384 0 0 1 13.134-32.686 5 5 0 1 1 9.118 4.108 421.376 421.376 0 0 0-12.828 31.924 5.003 5.003 0 0 1-4.712 3.329zm36.035-76.359a5 5 0 0 1-4.281-7.575 444.089 444.089 0 0 1 19.34-29.454 5 5 0 0 1 8.136 5.816 433.652 433.652 0 0 0-18.904 28.787 4.998 4.998 0 0 1-4.291 2.426zm50.232-68.025a5.002 5.002 0 0 1-3.736-8.321 531.572 531.572 0 0 1 24.251-25.5 5 5 0 0 1 7.017 7.125 520.692 520.692 0 0 0-23.793 25.018 4.988 4.988 0 0 1-3.74 1.679zm60.964-58.66a5 5 0 0 1-3.205-8.84 720.064 720.064 0 0 1 27.498-21.782 5 5 0 1 1 6.02 7.985 708.051 708.051 0 0 0-27.114 21.478 4.982 4.982 0 0 1-3.199 1.16zm67.98-50.414a5 5 0 0 1-2.779-9.161 1084.469 1084.469 0 0 1 29.473-18.947 5 5 0 1 1 5.275 8.495 1073.174 1073.174 0 0 0-29.2 18.772 4.981 4.981 0 0 1-2.77.84zm72.197-44.374a5 5 0 0 1-2.49-9.34 1985.347 1985.347 0 0 1 30.563-17.136 5.001 5.001 0 0 1 4.819 8.763 1974.19 1974.19 0 0 0-30.411 17.05 4.978 4.978 0 0 1-2.48.663zm74.454-40.783a5 5 0 0 1-2.347-9.418 10345.031 10345.031 0 0 1 30.913-16.311 5 5 0 1 1 4.655 8.85 10561.285 10561.285 0 0 0-30.883 16.294 4.978 4.978 0 0 1-2.338.584zm75.027-39.616a5 5 0 0 1-2.357-9.413 2877.308 2877.308 0 0 0 30.68-16.579 5 5 0 1 1 4.812 8.767 2879.56 2879.56 0 0 1-30.786 16.636c-.75.4-1.555.589-2.349.589zm74.14-41.221a5.001 5.001 0 0 1-2.543-9.309c10.449-6.157 20.433-12.247 29.676-18.101 2.333-1.479 5.421-.784 6.899 1.549s.784 5.422-1.549 6.899c-9.333 5.911-19.41 12.057-29.951 18.268a4.973 4.973 0 0 1-2.533.693zm71.113-46.133a5 5 0 0 1-2.947-9.042c9.653-7.029 18.853-14.152 27.343-21.172a5.001 5.001 0 0 1 6.373 7.707c-8.648 7.15-18.011 14.4-27.829 21.549a4.974 4.974 0 0 1-2.939.958zm64.691-55.698a5 5 0 0 1-3.615-8.453 349.951 349.951 0 0 0 11.61-12.761 5 5 0 1 1 7.562 6.542 362.056 362.056 0 0 1-11.941 13.126 4.986 4.986 0 0 1-3.616 1.546z"/></g></svg></g><g transform="translate(881.0 1434.0) rotate(-133.1834955186264 -373.5 462.5) scale(-1.0738451851628235 1.0738046232803165)"><svg width="695.631" height="861.423" viewBox="0 0 695.631 861.423"><g fill="#91a0e2"><path d="M20.828 861.424a5.001 5.001 0 0 1-4.899-4.028 958.966 958.966 0 0 1-3.266-17.288 5 5 0 1 1 9.843-1.763 947.473 947.473 0 0 0 3.231 17.106 5 5 0 0 1-4.91 5.974zm-10.654-66.508a5 5 0 0 1-4.958-4.406 763.076 763.076 0 0 1-3.387-34.976 5.001 5.001 0 0 1 4.623-5.352c2.736-.195 5.15 1.868 5.351 4.623a753.122 753.122 0 0 0 3.342 34.516 5 5 0 0 1-4.971 5.595zm-5.172-84.569h-.011a5 5 0 0 1-4.99-5.01 596.014 596.014 0 0 1 1.095-35.107 5.001 5.001 0 0 1 9.982.612 586.275 586.275 0 0 0-1.076 34.515 5 5 0 0 1-5 4.99zm6.432-84.24a5 5 0 0 1-4.946-5.777 483.886 483.886 0 0 1 6.715-34.533 5 5 0 1 1 9.739 2.271 473.585 473.585 0 0 0-6.575 33.816 5.003 5.003 0 0 1-4.934 4.224zm20.588-81.881a5 5 0 0 1-4.712-6.675 431.384 431.384 0 0 1 13.134-32.686 5 5 0 1 1 9.118 4.108 421.376 421.376 0 0 0-12.828 31.924 5.003 5.003 0 0 1-4.712 3.329zm36.035-76.359a5 5 0 0 1-4.281-7.575 444.089 444.089 0 0 1 19.34-29.454 5 5 0 0 1 8.136 5.816 433.652 433.652 0 0 0-18.904 28.787 4.998 4.998 0 0 1-4.291 2.426zm50.232-68.025a5.002 5.002 0 0 1-3.736-8.321 531.572 531.572 0 0 1 24.251-25.5 5 5 0 0 1 7.017 7.125 520.692 520.692 0 0 0-23.793 25.018 4.988 4.988 0 0 1-3.74 1.679zm60.964-58.66a5 5 0 0 1-3.205-8.84 720.064 720.064 0 0 1 27.498-21.782 5 5 0 1 1 6.02 7.985 708.051 708.051 0 0 0-27.114 21.478 4.982 4.982 0 0 1-3.199 1.16zm67.98-50.414a5 5 0 0 1-2.779-9.161 1084.469 1084.469 0 0 1 29.473-18.947 5 5 0 1 1 5.275 8.495 1073.174 1073.174 0 0 0-29.2 18.772 4.981 4.981 0 0 1-2.77.84zm72.197-44.374a5 5 0 0 1-2.49-9.34 1985.347 1985.347 0 0 1 30.563-17.136 5.001 5.001 0 0 1 4.819 8.763 1974.19 1974.19 0 0 0-30.411 17.05 4.978 4.978 0 0 1-2.48.663zm74.454-40.783a5 5 0 0 1-2.347-9.418 10345.031 10345.031 0 0 1 30.913-16.311 5 5 0 1 1 4.655 8.85 10561.285 10561.285 0 0 0-30.883 16.294 4.978 4.978 0 0 1-2.338.584zm75.027-39.616a5 5 0 0 1-2.357-9.413 2877.308 2877.308 0 0 0 30.68-16.579 5 5 0 1 1 4.812 8.767 2879.56 2879.56 0 0 1-30.786 16.636c-.75.4-1.555.589-2.349.589zm74.14-41.221a5.001 5.001 0 0 1-2.543-9.309c10.449-6.157 20.433-12.247 29.676-18.101 2.333-1.479 5.421-.784 6.899 1.549s.784 5.422-1.549 6.899c-9.333 5.911-19.41 12.057-29.951 18.268a4.973 4.973 0 0 1-2.533.693zm71.113-46.133a5 5 0 0 1-2.947-9.042c9.653-7.029 18.853-14.152 27.343-21.172a5.001 5.001 0 0 1 6.373 7.707c-8.648 7.15-18.011 14.4-27.829 21.549a4.974 4.974 0 0 1-2.939.958zm64.691-55.698a5 5 0 0 1-3.615-8.453 349.951 349.951 0 0 0 11.61-12.761 5 5 0 1 1 7.562 6.542 362.056 362.056 0 0 1-11.941 13.126 4.986 4.986 0 0 1-3.616 1.546z"/></g></svg></g></svg>